<svg xmlns="http://www.w3.org/2000/svg" viewBox="0 0 250 110">
<g fill="#ffb000">
<rect x="10" y="10" width="9" height="9" rx="2"/>
<rect x="10" y="20" width="9" height="9" rx="2"/>
<rect x="10" y="30" width="9" height="9" rx="2"/>
<rect x="10" y="40" width="9" height="9" rx="2"/>
<rect x="10" y="50" width="9" height="9" rx="2"/>
<rect x="10" y="60" width="9" height="9" rx="2"/>
<rect x="10" y="70" width="9" height="9" rx="2"/>
<rect x="10" y="80" width="9" height="9" rx="2"/>
<rect x="10" y="90" width="9" height="9" rx="2"/>
<rect x="20" y="20" width="9" height="9" rx="2"/>
<rect x="20" y="30" width="9" height="9" rx="2"/>
<rect x="30" y="30" width="9" height="9" rx="2"/>
<rect x="30" y="40" width="9" height="9" rx="2"/>
<rect x="40" y="40" width="9" height="9" rx="2"/>
<rect x="40" y="50" width="9" height="9" rx="2"/>
<rect x="50" y="30" width="9" height="9" rx="2"/>
<rect x="50" y="40" width="9" height="9" rx="2"/>
<rect x="60" y="20" width="9" height="9" rx="2"/>
<rect x="60" y="30" width="9" height="9" rx="2"/>
<rect x="70" y="10" width="9" height="9" rx="2"/>
<rect x="70" y="20" width="9" height="9" rx="2"/>
<rect x="70" y="30" width="9" height="9" rx="2"/>
<rect x="70" y="40" width="9" height="9" rx="2"/>
<rect x="70" y="50" width="9" height="9" rx="2"/>
<rect x="70" y="60" width="9" height="9" rx="2"/>
<rect x="70" y="70" width="9" height="9" rx="2"/>
<rect x="70" y="80" width="9" height="9" rx="2"/>
<rect x="70" y="90" width="9" height="9" rx="2"/>
<rect x="90" y="10" width="9" height="9" rx="2"/>
<rect x="90" y="20" width="9" height="9" rx="2"/>
<rect x="90" y="30" width="9" height="9" rx="2"/>
<rect x="90" y="40" width="9" height="9" rx="2"/>
<rect x="90" y="50" width="9" height="9" rx="2"/>
<rect x="90" y="60" width="9" height="9" rx="2"/>
<rect x="100" y="60" width="9" height="9" rx="2"/>
<rect x="100" y="70" width="9" height="9" rx="2"/>
<rect x="110" y="70" width="9" height="9" rx="2"/>
<rect x="110" y="80" width="9" height="9" rx="2"/>
<rect x="120" y="80" width="9" height="9" rx="2"/>
<rect x="120" y="90" width="9" height="9" rx="2"/>
<rect x="130" y="70" width="9" height="9" rx="2"/>
<rect x="130" y="80" width="9" height="9" rx="2"/>
<rect x="140" y="60" width="9" height="9" rx="2"/>
<rect x="140" y="70" width="9" height="9" rx="2"/>
<rect x="150" y="10" width="9" height="9" rx="2"/>
<rect x="150" y="20" width="9" height="9" rx="2"/>
<rect x="150" y="30" width="9" height="9" rx="2"/>
<rect x="150" y="40" width="9" height="9" rx="2"/>
<rect x="150" y="50" width="9" height="9" rx="2"/>
<rect x="150" y="60" width="9" height="9" rx="2"/>
<rect x="170" y="10" width="9" height="9" rx="2"/>
<rect x="170" y="20" width="9" height="9" rx="2"/>
<rect x="170" y="30" width="9" height="9" rx="2"/>
<rect x="170" y="40" width="9" height="9" rx="2"/>
<rect x="170" y="50" width="9" height="9" rx="2"/>
<rect x="170" y="60" width="9" height="9" rx="2"/>
<rect x="170" y="70" width="9" height="9" rx="2"/>
<rect x="170" y="80" width="9" height="9" rx="2"/>
<rect x="170" y="90" width="9" height="9" rx="2"/>
<rect x="180" y="20" width="9" height="9" rx="2"/>
<rect x="180" y="30" width="9" height="9" rx="2"/>
<rect x="190" y="30" width="9" height="9" rx="2"/>
<rect x="190" y="40" width="9" height="9" rx="2"/>
<rect x="200" y="40" width="9" height="9" rx="2"/>
<rect x="200" y="50" width="9" height="9" rx="2"/>
<rect x="210" y="30" width="9" height="9" rx="2"/>
<rect x="210" y="40" width="9" height="9" rx="2"/>
<rect x="220" y="20" width="9" height="9" rx="2"/>
<rect x="220" y="30" width="9" height="9" rx="2"/>
<rect x="230" y="10" width="9" height="9" rx="2"/>
<rect x="230" y="20" width="9" height="9" rx="2"/>
<rect x="230" y="30" width="9" height="9" rx="2"/>
<rect x="230" y="40" width="9" height="9" rx="2"/>
<rect x="230" y="50" width="9" height="9" rx="2"/>
<rect x="230" y="60" width="9" height="9" rx="2"/>
<rect x="230" y="70" width="9" height="9" rx="2"/>
<rect x="230" y="80" width="9" height="9" rx="2"/>
<rect x="230" y="90" width="9" height="9" rx="2"/>
</g>
</svg>
