<svg xmlns="http://www.w3.org/2000/svg" viewBox="0 0 250 250">
<rect width="250" height="250" fill="#1a1410" rx="20"/>
<g fill="#ffb000">
<rect x="10" y="80" width="9" height="9" rx="2"/>
<rect x="10" y="90" width="9" height="9" rx="2"/>
<rect x="10" y="100" width="9" height="9" rx="2"/>
<rect x="10" y="110" width="9" height="9" rx="2"/>
<rect x="10" y="120" width="9" height="9" rx="2"/>
<rect x="10" y="130" width="9" height="9" rx="2"/>
<rect x="10" y="140" width="9" height="9" rx="2"/>
<rect x="10" y="150" width="9" height="9" rx="2"/>
<rect x="10" y="160" width="9" height="9" rx="2"/>
<rect x="20" y="90" width="9" height="9" rx="2"/>
<rect x="20" y="100" width="9" height="9" rx="2"/>
<rect x="30" y="100" width="9" height="9" rx="2"/>
<rect x="30" y="110" width="9" height="9" rx="2"/>
<rect x="40" y="110" width="9" height="9" rx="2"/>
<rect x="40" y="120" width="9" height="9" rx="2"/>
<rect x="50" y="100" width="9" height="9" rx="2"/>
<rect x="50" y="110" width="9" height="9" rx="2"/>
<rect x="60" y="90" width="9" height="9" rx="2"/>
<rect x="60" y="100" width="9" height="9" rx="2"/>
<rect x="70" y="80" width="9" height="9" rx="2"/>
<rect x="70" y="90" width="9" height="9" rx="2"/>
<rect x="70" y="100" width="9" height="9" rx="2"/>
<rect x="70" y="110" width="9" height="9" rx="2"/>
<rect x="70" y="120" width="9" height="9" rx="2"/>
<rect x="70" y="130" width="9" height="9" rx="2"/>
<rect x="70" y="140" width="9" height="9" rx="2"/>
<rect x="70" y="150" width="9" height="9" rx="2"/>
<rect x="70" y="160" width="9" height="9" rx="2"/>
<rect x="90" y="80" width="9" height="9" rx="2"/>
<rect x="90" y="90" width="9" height="9" rx="2"/>
<rect x="90" y="100" width="9" height="9" rx="2"/>
<rect x="90" y="110" width="9" height="9" rx="2"/>
<rect x="90" y="120" width="9" height="9" rx="2"/>
<rect x="90" y="130" width="9" height="9" rx="2"/>
<rect x="100" y="130" width="9" height="9" rx="2"/>
<rect x="100" y="140" width="9" height="9" rx="2"/>
<rect x="110" y="140" width="9" height="9" rx="2"/>
<rect x="110" y="150" width="9" height="9" rx="2"/>
<rect x="120" y="150" width="9" height="9" rx="2"/>
<rect x="120" y="160" width="9" height="9" rx="2"/>
<rect x="130" y="140" width="9" height="9" rx="2"/>
<rect x="130" y="150" width="9" height="9" rx="2"/>
<rect x="140" y="130" width="9" height="9" rx="2"/>
<rect x="140" y="140" width="9" height="9" rx="2"/>
<rect x="150" y="80" width="9" height="9" rx="2"/>
<rect x="150" y="90" width="9" height="9" rx="2"/>
<rect x="150" y="100" width="9" height="9" rx="2"/>
<rect x="150" y="110" width="9" height="9" rx="2"/>
<rect x="150" y="120" width="9" height="9" rx="2"/>
<rect x="150" y="130" width="9" height="9" rx="2"/>
<rect x="170" y="80" width="9" height="9" rx="2"/>
<rect x="170" y="90" width="9" height="9" rx="2"/>
<rect x="170" y="100" width="9" height="9" rx="2"/>
<rect x="170" y="110" width="9" height="9" rx="2"/>
<rect x="170" y="120" width="9" height="9" rx="2"/>
<rect x="170" y="130" width="9" height="9" rx="2"/>
<rect x="170" y="140" width="9" height="9" rx="2"/>
<rect x="170" y="150" width="9" height="9" rx="2"/>
<rect x="170" y="160" width="9" height="9" rx="2"/>
<rect x="180" y="90" width="9" height="9" rx="2"/>
<rect x="180" y="100" width="9" height="9" rx="2"/>
<rect x="190" y="100" width="9" height="9" rx="2"/>
<rect x="190" y="110" width="9" height="9" rx="2"/>
<rect x="200" y="110" width="9" height="9" rx="2"/>
<rect x="200" y="120" width="9" height="9" rx="2"/>
<rect x="210" y="100" width="9" height="9" rx="2"/>
<rect x="210" y="110" width="9" height="9" rx="2"/>
<rect x="220" y="90" width="9" height="9" rx="2"/>
<rect x="220" y="100" width="9" height="9" rx="2"/>
<rect x="230" y="80" width="9" height="9" rx="2"/>
<rect x="230" y="90" width="9" height="9" rx="2"/>
<rect x="230" y="100" width="9" height="9" rx="2"/>
<rect x="230" y="110" width="9" height="9" rx="2"/>
<rect x="230" y="120" width="9" height="9" rx="2"/>
<rect x="230" y="130" width="9" height="9" rx="2"/>
<rect x="230" y="140" width="9" height="9" rx="2"/>
<rect x="230" y="150" width="9" height="9" rx="2"/>
<rect x="230" y="160" width="9" height="9" rx="2"/>
</g>
</svg>
